<mxfile host="app.diagrams.net" agent="Mozilla/5.0 (Macintosh; Intel Mac OS X 10_15_7) AppleWebKit/537.36 (KHTML, like Gecko) Chrome/130.0.0.0 Safari/537.36" version="24.8.2">
  <diagram id="prtHgNgQTEPvFCAcTncT" name="Page-1">
    <mxGraphModel dx="969" dy="415" grid="1" gridSize="10" guides="1" tooltips="1" connect="1" arrows="1" fold="1" page="1" pageScale="1" pageWidth="827" pageHeight="1169" math="0" shadow="0">
      <root>
        <mxCell id="0" />
        <mxCell id="1" parent="0" />
        <mxCell id="o4aa4WOCoxLg3H0-I9Gl-1" value="" style="rounded=1;whiteSpace=wrap;html=1;fillColor=#f8cecc;strokeColor=#b85450;" parent="1" vertex="1">
          <mxGeometry x="120" y="160" width="580" height="90" as="geometry" />
        </mxCell>
        <mxCell id="o4aa4WOCoxLg3H0-I9Gl-2" value="Assess the trade-offs between energy efficiency, model performance, and resource utilization when applying PTQ to LLMs." style="rounded=0;whiteSpace=wrap;html=1;" parent="1" vertex="1">
          <mxGeometry x="210" y="175" width="380" height="60" as="geometry" />
        </mxCell>
        <mxCell id="o4aa4WOCoxLg3H0-I9Gl-6" value="" style="rounded=1;whiteSpace=wrap;html=1;fillColor=#d5e8d4;strokeColor=#82b366;" parent="1" vertex="1">
          <mxGeometry x="120" y="270" width="580" height="120" as="geometry" />
        </mxCell>
        <mxCell id="o4aa4WOCoxLg3H0-I9Gl-7" value="&lt;div&gt;RQ1: How does PTQ affect the energy consumption of LLMs&lt;/div&gt;&lt;div&gt;during inference?&lt;/div&gt;" style="rounded=1;whiteSpace=wrap;html=1;" parent="1" vertex="1">
          <mxGeometry x="135" y="290" width="120" height="90" as="geometry" />
        </mxCell>
        <mxCell id="o4aa4WOCoxLg3H0-I9Gl-8" value="RQ2: How does PTQ affect the accuracy of LLMs?" style="rounded=1;whiteSpace=wrap;html=1;" parent="1" vertex="1">
          <mxGeometry x="270" y="290" width="135" height="90" as="geometry" />
        </mxCell>
        <mxCell id="o4aa4WOCoxLg3H0-I9Gl-9" value="RQ3:&amp;nbsp;&lt;span style=&quot;background-color: initial;&quot;&gt;How does PTQ affect the computational resource uti-&lt;/span&gt;&lt;div&gt;lization of LLMs during inference?&lt;/div&gt;" style="rounded=1;whiteSpace=wrap;html=1;" parent="1" vertex="1">
          <mxGeometry x="420" y="290" width="120" height="90" as="geometry" />
        </mxCell>
        <mxCell id="o4aa4WOCoxLg3H0-I9Gl-10" value="" style="rounded=1;whiteSpace=wrap;html=1;fillColor=#dae8fc;strokeColor=#6c8ebf;" parent="1" vertex="1">
          <mxGeometry x="120" y="410" width="580" height="160" as="geometry" />
        </mxCell>
        <mxCell id="o4aa4WOCoxLg3H0-I9Gl-14" value="" style="endArrow=classic;html=1;rounded=0;entryX=0.5;entryY=0;entryDx=0;entryDy=0;exitX=0.5;exitY=1;exitDx=0;exitDy=0;" parent="1" source="o4aa4WOCoxLg3H0-I9Gl-2" target="o4aa4WOCoxLg3H0-I9Gl-7" edge="1">
          <mxGeometry width="50" height="50" relative="1" as="geometry">
            <mxPoint x="60" y="360" as="sourcePoint" />
            <mxPoint x="110" y="310" as="targetPoint" />
            <Array as="points">
              <mxPoint x="400" y="260" />
              <mxPoint x="195" y="260" />
            </Array>
          </mxGeometry>
        </mxCell>
        <mxCell id="o4aa4WOCoxLg3H0-I9Gl-15" value="" style="endArrow=classic;html=1;rounded=0;entryX=0.5;entryY=0;entryDx=0;entryDy=0;" parent="1" target="o4aa4WOCoxLg3H0-I9Gl-8" edge="1">
          <mxGeometry width="50" height="50" relative="1" as="geometry">
            <mxPoint x="338" y="260" as="sourcePoint" />
            <mxPoint x="370" y="270" as="targetPoint" />
          </mxGeometry>
        </mxCell>
        <mxCell id="o4aa4WOCoxLg3H0-I9Gl-16" value="" style="endArrow=classic;html=1;rounded=0;entryX=0.5;entryY=0;entryDx=0;entryDy=0;" parent="1" target="o4aa4WOCoxLg3H0-I9Gl-9" edge="1">
          <mxGeometry width="50" height="50" relative="1" as="geometry">
            <mxPoint x="350" y="260" as="sourcePoint" />
            <mxPoint x="400" y="270" as="targetPoint" />
            <Array as="points">
              <mxPoint x="350" y="260" />
              <mxPoint x="480" y="260" />
            </Array>
          </mxGeometry>
        </mxCell>
        <mxCell id="o4aa4WOCoxLg3H0-I9Gl-17" value="Energy Unit" style="rounded=1;whiteSpace=wrap;html=1;" parent="1" vertex="1">
          <mxGeometry x="140" y="430" width="110" height="20" as="geometry" />
        </mxCell>
        <mxCell id="o4aa4WOCoxLg3H0-I9Gl-18" value="Joules" style="rounded=1;whiteSpace=wrap;html=1;" parent="1" vertex="1">
          <mxGeometry x="140" y="520" width="110" height="20" as="geometry" />
        </mxCell>
        <mxCell id="o4aa4WOCoxLg3H0-I9Gl-19" value="" style="endArrow=classic;html=1;rounded=0;exitX=0.5;exitY=1;exitDx=0;exitDy=0;entryX=0.5;entryY=0;entryDx=0;entryDy=0;" parent="1" source="o4aa4WOCoxLg3H0-I9Gl-7" target="o4aa4WOCoxLg3H0-I9Gl-17" edge="1">
          <mxGeometry width="50" height="50" relative="1" as="geometry">
            <mxPoint x="340" y="390" as="sourcePoint" />
            <mxPoint x="390" y="340" as="targetPoint" />
          </mxGeometry>
        </mxCell>
        <mxCell id="o4aa4WOCoxLg3H0-I9Gl-20" value="" style="endArrow=classic;html=1;rounded=0;exitX=0.5;exitY=1;exitDx=0;exitDy=0;entryX=0.5;entryY=0;entryDx=0;entryDy=0;" parent="1" source="o4aa4WOCoxLg3H0-I9Gl-17" target="o4aa4WOCoxLg3H0-I9Gl-18" edge="1">
          <mxGeometry width="50" height="50" relative="1" as="geometry">
            <mxPoint x="340" y="390" as="sourcePoint" />
            <mxPoint x="390" y="340" as="targetPoint" />
          </mxGeometry>
        </mxCell>
        <mxCell id="o4aa4WOCoxLg3H0-I9Gl-22" value="Performance Units" style="rounded=1;whiteSpace=wrap;html=1;" parent="1" vertex="1">
          <mxGeometry x="405" y="430" width="110" height="20" as="geometry" />
        </mxCell>
        <mxCell id="o4aa4WOCoxLg3H0-I9Gl-23" value="Memory Utilization&amp;nbsp;" style="rounded=1;whiteSpace=wrap;html=1;" parent="1" vertex="1">
          <mxGeometry x="350" y="470" width="110" height="30" as="geometry" />
        </mxCell>
        <mxCell id="o4aa4WOCoxLg3H0-I9Gl-24" value="Accuracy" style="rounded=1;whiteSpace=wrap;html=1;" parent="1" vertex="1">
          <mxGeometry x="270" y="470" width="70" height="30" as="geometry" />
        </mxCell>
        <mxCell id="o4aa4WOCoxLg3H0-I9Gl-25" value="GPU/CPU time" style="rounded=1;whiteSpace=wrap;html=1;" parent="1" vertex="1">
          <mxGeometry x="470" y="470" width="90" height="30" as="geometry" />
        </mxCell>
        <mxCell id="o4aa4WOCoxLg3H0-I9Gl-27" value="&lt;font style=&quot;font-size: 12px;&quot;&gt;Percentage&lt;/font&gt;" style="rounded=1;whiteSpace=wrap;html=1;" parent="1" vertex="1">
          <mxGeometry x="270" y="520" width="70" height="20" as="geometry" />
        </mxCell>
        <mxCell id="o4aa4WOCoxLg3H0-I9Gl-28" value="seconds" style="rounded=1;whiteSpace=wrap;html=1;" parent="1" vertex="1">
          <mxGeometry x="470" y="520" width="90" height="20" as="geometry" />
        </mxCell>
        <mxCell id="o4aa4WOCoxLg3H0-I9Gl-29" value="&lt;font style=&quot;font-size: 12px;&quot;&gt;MB&lt;/font&gt;" style="rounded=1;whiteSpace=wrap;html=1;" parent="1" vertex="1">
          <mxGeometry x="370" y="520" width="70" height="20" as="geometry" />
        </mxCell>
        <mxCell id="o4aa4WOCoxLg3H0-I9Gl-31" value="" style="endArrow=classic;html=1;rounded=0;entryX=0.5;entryY=0;entryDx=0;entryDy=0;exitX=0.5;exitY=1;exitDx=0;exitDy=0;" parent="1" source="o4aa4WOCoxLg3H0-I9Gl-9" target="o4aa4WOCoxLg3H0-I9Gl-22" edge="1">
          <mxGeometry width="50" height="50" relative="1" as="geometry">
            <mxPoint x="340" y="430" as="sourcePoint" />
            <mxPoint x="390" y="380" as="targetPoint" />
            <Array as="points">
              <mxPoint x="480" y="400" />
              <mxPoint x="460" y="400" />
            </Array>
          </mxGeometry>
        </mxCell>
        <mxCell id="o4aa4WOCoxLg3H0-I9Gl-32" value="" style="endArrow=classic;html=1;rounded=0;exitX=0.5;exitY=1;exitDx=0;exitDy=0;entryX=0.5;entryY=0;entryDx=0;entryDy=0;" parent="1" source="o4aa4WOCoxLg3H0-I9Gl-8" target="o4aa4WOCoxLg3H0-I9Gl-22" edge="1">
          <mxGeometry width="50" height="50" relative="1" as="geometry">
            <mxPoint x="340" y="430" as="sourcePoint" />
            <mxPoint x="410" y="430" as="targetPoint" />
            <Array as="points">
              <mxPoint x="338" y="400" />
              <mxPoint x="460" y="400" />
            </Array>
          </mxGeometry>
        </mxCell>
        <mxCell id="o4aa4WOCoxLg3H0-I9Gl-34" value="" style="endArrow=classic;html=1;rounded=0;exitX=0.5;exitY=1;exitDx=0;exitDy=0;entryX=0.5;entryY=0;entryDx=0;entryDy=0;" parent="1" source="o4aa4WOCoxLg3H0-I9Gl-24" target="o4aa4WOCoxLg3H0-I9Gl-27" edge="1">
          <mxGeometry width="50" height="50" relative="1" as="geometry">
            <mxPoint x="310" y="500" as="sourcePoint" />
            <mxPoint x="360" y="450" as="targetPoint" />
          </mxGeometry>
        </mxCell>
        <mxCell id="o4aa4WOCoxLg3H0-I9Gl-36" value="" style="endArrow=classic;html=1;rounded=0;entryX=0.5;entryY=0;entryDx=0;entryDy=0;exitX=0.483;exitY=0.979;exitDx=0;exitDy=0;exitPerimeter=0;" parent="1" source="o4aa4WOCoxLg3H0-I9Gl-22" target="o4aa4WOCoxLg3H0-I9Gl-23" edge="1">
          <mxGeometry width="50" height="50" relative="1" as="geometry">
            <mxPoint x="410" y="450" as="sourcePoint" />
            <mxPoint x="450" y="460" as="targetPoint" />
          </mxGeometry>
        </mxCell>
        <mxCell id="o4aa4WOCoxLg3H0-I9Gl-37" value="" style="endArrow=classic;html=1;rounded=0;exitX=0.5;exitY=1;exitDx=0;exitDy=0;entryX=0.46;entryY=-0.014;entryDx=0;entryDy=0;entryPerimeter=0;" parent="1" source="o4aa4WOCoxLg3H0-I9Gl-22" target="o4aa4WOCoxLg3H0-I9Gl-25" edge="1">
          <mxGeometry width="50" height="50" relative="1" as="geometry">
            <mxPoint x="400" y="510" as="sourcePoint" />
            <mxPoint x="450" y="460" as="targetPoint" />
          </mxGeometry>
        </mxCell>
        <mxCell id="o4aa4WOCoxLg3H0-I9Gl-39" value="" style="endArrow=classic;html=1;rounded=0;entryX=0.5;entryY=0;entryDx=0;entryDy=0;" parent="1" target="o4aa4WOCoxLg3H0-I9Gl-24" edge="1">
          <mxGeometry width="50" height="50" relative="1" as="geometry">
            <mxPoint x="450" y="450" as="sourcePoint" />
            <mxPoint x="410" y="460" as="targetPoint" />
          </mxGeometry>
        </mxCell>
        <mxCell id="o4aa4WOCoxLg3H0-I9Gl-40" value="" style="endArrow=classic;html=1;rounded=0;exitX=0.5;exitY=1;exitDx=0;exitDy=0;entryX=0.5;entryY=0;entryDx=0;entryDy=0;" parent="1" source="o4aa4WOCoxLg3H0-I9Gl-23" target="o4aa4WOCoxLg3H0-I9Gl-29" edge="1">
          <mxGeometry width="50" height="50" relative="1" as="geometry">
            <mxPoint x="380" y="500" as="sourcePoint" />
            <mxPoint x="430" y="450" as="targetPoint" />
          </mxGeometry>
        </mxCell>
        <mxCell id="o4aa4WOCoxLg3H0-I9Gl-41" value="" style="endArrow=classic;html=1;rounded=0;entryX=0.5;entryY=0;entryDx=0;entryDy=0;exitX=0.5;exitY=1;exitDx=0;exitDy=0;" parent="1" source="o4aa4WOCoxLg3H0-I9Gl-25" target="o4aa4WOCoxLg3H0-I9Gl-28" edge="1">
          <mxGeometry width="50" height="50" relative="1" as="geometry">
            <mxPoint x="430" y="500" as="sourcePoint" />
            <mxPoint x="480" y="450" as="targetPoint" />
          </mxGeometry>
        </mxCell>
        <mxCell id="o4aa4WOCoxLg3H0-I9Gl-43" value="&lt;b&gt;Goal&lt;/b&gt;" style="text;html=1;align=center;verticalAlign=middle;whiteSpace=wrap;rounded=0;rotation=90;" parent="1" vertex="1">
          <mxGeometry x="650" y="185" width="60" height="40" as="geometry" />
        </mxCell>
        <mxCell id="o4aa4WOCoxLg3H0-I9Gl-44" value="&lt;b&gt;Questions&lt;/b&gt;&lt;div&gt;&lt;b&gt;&lt;br&gt;&lt;/b&gt;&lt;/div&gt;" style="text;html=1;align=center;verticalAlign=middle;whiteSpace=wrap;rounded=0;rotation=90;" parent="1" vertex="1">
          <mxGeometry x="630" y="310" width="90" height="40" as="geometry" />
        </mxCell>
        <mxCell id="o4aa4WOCoxLg3H0-I9Gl-45" value="&lt;div&gt;&lt;b&gt;Metrics&lt;/b&gt;&lt;/div&gt;" style="text;html=1;align=center;verticalAlign=middle;whiteSpace=wrap;rounded=0;rotation=90;" parent="1" vertex="1">
          <mxGeometry x="650" y="460" width="60" height="40" as="geometry" />
        </mxCell>
        <mxCell id="hAEHh2uS3ceFWjUzHX0k-1" value="RQ4: How does PTQ affect the inference time of LLMs?" style="rounded=1;whiteSpace=wrap;html=1;" parent="1" vertex="1">
          <mxGeometry x="550" y="290" width="120" height="90" as="geometry" />
        </mxCell>
        <mxCell id="hAEHh2uS3ceFWjUzHX0k-13" style="edgeStyle=none;curved=1;rounded=0;orthogonalLoop=1;jettySize=auto;html=1;exitX=0.5;exitY=1;exitDx=0;exitDy=0;entryX=0.5;entryY=0;entryDx=0;entryDy=0;fontSize=12;startSize=8;endSize=8;" parent="1" source="hAEHh2uS3ceFWjUzHX0k-3" target="hAEHh2uS3ceFWjUzHX0k-4" edge="1">
          <mxGeometry relative="1" as="geometry" />
        </mxCell>
        <mxCell id="hAEHh2uS3ceFWjUzHX0k-3" value="Latency" style="rounded=1;whiteSpace=wrap;html=1;" parent="1" vertex="1">
          <mxGeometry x="565" y="470" width="90" height="30" as="geometry" />
        </mxCell>
        <mxCell id="hAEHh2uS3ceFWjUzHX0k-4" value="&lt;font style=&quot;font-size: 12px;&quot;&gt;Seconds&lt;/font&gt;" style="rounded=1;whiteSpace=wrap;html=1;" parent="1" vertex="1">
          <mxGeometry x="565" y="520" width="90" height="20" as="geometry" />
        </mxCell>
        <mxCell id="hAEHh2uS3ceFWjUzHX0k-8" value="" style="endArrow=none;html=1;rounded=0;fontSize=12;startSize=8;endSize=8;curved=1;" parent="1" edge="1">
          <mxGeometry width="50" height="50" relative="1" as="geometry">
            <mxPoint x="480" y="260" as="sourcePoint" />
            <mxPoint x="610" y="260" as="targetPoint" />
          </mxGeometry>
        </mxCell>
        <mxCell id="hAEHh2uS3ceFWjUzHX0k-9" value="" style="endArrow=classic;html=1;rounded=0;fontSize=12;startSize=8;endSize=8;curved=1;entryX=0.5;entryY=0;entryDx=0;entryDy=0;" parent="1" target="hAEHh2uS3ceFWjUzHX0k-1" edge="1">
          <mxGeometry width="50" height="50" relative="1" as="geometry">
            <mxPoint x="610" y="260" as="sourcePoint" />
            <mxPoint x="570" y="330" as="targetPoint" />
          </mxGeometry>
        </mxCell>
        <mxCell id="hAEHh2uS3ceFWjUzHX0k-11" value="" style="endArrow=classic;html=1;rounded=0;fontSize=12;startSize=8;endSize=8;curved=1;entryX=0.5;entryY=0;entryDx=0;entryDy=0;exitX=0.5;exitY=1;exitDx=0;exitDy=0;" parent="1" source="o4aa4WOCoxLg3H0-I9Gl-22" target="hAEHh2uS3ceFWjUzHX0k-3" edge="1">
          <mxGeometry width="50" height="50" relative="1" as="geometry">
            <mxPoint x="460" y="420" as="sourcePoint" />
            <mxPoint x="510" y="370" as="targetPoint" />
          </mxGeometry>
        </mxCell>
        <mxCell id="hAEHh2uS3ceFWjUzHX0k-17" value="" style="endArrow=none;html=1;rounded=0;fontSize=12;startSize=8;endSize=8;curved=1;entryX=0.5;entryY=1;entryDx=0;entryDy=0;" parent="1" target="hAEHh2uS3ceFWjUzHX0k-1" edge="1">
          <mxGeometry width="50" height="50" relative="1" as="geometry">
            <mxPoint x="610" y="400" as="sourcePoint" />
            <mxPoint x="510" y="370" as="targetPoint" />
          </mxGeometry>
        </mxCell>
        <mxCell id="hAEHh2uS3ceFWjUzHX0k-18" value="" style="endArrow=none;html=1;rounded=0;fontSize=12;startSize=8;endSize=8;curved=1;" parent="1" edge="1">
          <mxGeometry width="50" height="50" relative="1" as="geometry">
            <mxPoint x="480" y="400" as="sourcePoint" />
            <mxPoint x="610" y="400" as="targetPoint" />
          </mxGeometry>
        </mxCell>
      </root>
    </mxGraphModel>
  </diagram>
</mxfile>
